<svg width="20" height="21" viewBox="0 0 20 21" fill="none" xmlns="http://www.w3.org/2000/svg">
<path d="M2 19.3333H6.92267V12.564C6.92267 12.2591 7.02622 12.0035 7.23333 11.7973C7.43956 11.5902 7.69511 11.4867 8 11.4867H12C12.3049 11.4867 12.5609 11.5902 12.768 11.7973C12.9742 12.0035 13.0773 12.2591 13.0773 12.564V19.3333H18V7.74399C18 7.6071 17.9702 7.48265 17.9107 7.37065C17.8511 7.25865 17.7698 7.16088 17.6667 7.07732L10.488 1.66665C10.3511 1.54754 10.1884 1.48799 10 1.48799C9.81156 1.48799 9.64933 1.54754 9.51333 1.66665L2.33333 7.07732C2.23111 7.16265 2.14978 7.26043 2.08933 7.37065C2.02889 7.48088 1.99911 7.60532 2 7.74399V19.3333ZM0.666668 19.3333V7.74399C0.666668 7.40265 0.743112 7.07954 0.896001 6.77465C1.04889 6.46977 1.25956 6.21865 1.528 6.02132L8.708 0.583988C9.084 0.296876 9.51333 0.15332 9.996 0.15332C10.4787 0.15332 10.9107 0.296876 11.292 0.583988L18.472 6.01999C18.7413 6.21732 18.952 6.46888 19.104 6.77465C19.2569 7.07954 19.3333 7.40265 19.3333 7.74399V19.3333C19.3333 19.6907 19.2004 20.0022 18.9347 20.268C18.6689 20.5338 18.3573 20.6667 18 20.6667H12.8213C12.5156 20.6667 12.2596 20.5635 12.0533 20.3573C11.8471 20.1502 11.744 19.8942 11.744 19.5893V12.8213H8.256V19.5893C8.256 19.8951 8.15289 20.1511 7.94667 20.3573C7.74045 20.5635 7.48489 20.6667 7.18 20.6667H2C1.64267 20.6667 1.33111 20.5338 1.06533 20.268C0.799557 20.0022 0.666668 19.6907 0.666668 19.3333Z" fill="#565656"/>
</svg>
