<svg width="118" height="17" viewBox="0 0 118 17" fill="none" xmlns="http://www.w3.org/2000/svg">
<path d="M35.6874 10.7817C35.6874 12.7628 35.6874 14.3109 35.7975 15.1774C35.8634 15.7757 35.9953 16.2297 36.6578 16.3123C37.0233 16.3603 37.3916 16.3879 37.7607 16.3949C38.0474 16.3949 38.1358 16.4566 38.1358 16.5602C38.1358 16.7046 37.9815 16.7669 37.6506 16.7669C36.2609 16.7669 34.8713 16.7052 34.2978 16.7052C33.7243 16.7052 32.3346 16.7669 31.4961 16.7669C31.1876 16.7669 31.0347 16.7255 31.0347 16.5602C31.0347 16.4572 31.123 16.3949 31.3643 16.3949C31.6304 16.3948 31.8957 16.3671 32.1553 16.3123C32.5964 16.2297 32.7071 15.7757 32.7948 15.1774C32.9049 14.3109 32.9049 12.7628 32.9049 10.7817V7.14958C32.9049 4.01269 32.9048 3.43478 32.8607 2.77422C32.8165 2.07296 32.6398 1.74236 31.9121 1.59804C31.6291 1.55222 31.3422 1.53157 31.0551 1.53636C30.8343 1.53636 30.68 1.49504 30.68 1.37107C30.68 1.20578 30.8567 1.16445 31.1876 1.16445C31.7611 1.16445 32.4006 1.18481 32.9741 1.18481C33.5476 1.20578 34.0545 1.22613 34.3637 1.22613C35.2016 1.22613 39.6796 1.22613 40.1872 1.20578C40.491 1.20846 40.7942 1.18075 41.0917 1.12313C41.2235 1.08181 41.3343 0.999779 41.4444 0.999779C41.491 1.00533 41.5333 1.02789 41.5622 1.06255C41.5911 1.09721 41.6042 1.14116 41.5986 1.18481C41.5986 1.32913 41.4885 1.57707 41.4219 2.11366C41.4002 2.31966 41.356 3.53778 41.3119 3.78511C41.2901 3.9504 41.2459 4.07375 41.091 4.07375C40.9361 4.07375 40.8933 3.97075 40.8702 3.74378C40.8821 3.47669 40.8373 3.21003 40.7383 2.95925C40.5753 2.7456 40.3548 2.57604 40.0992 2.46773C39.8436 2.35942 39.562 2.31621 39.2828 2.34248L35.8858 2.28081C35.754 2.28081 35.6881 2.34248 35.6881 2.56945V7.72872C35.6881 7.85208 35.7098 7.91376 35.8423 7.91376L38.6658 7.89278C39.0408 7.89278 39.3494 7.89279 39.6585 7.87243C39.8365 7.88345 40.0147 7.85577 40.1793 7.79157C40.3438 7.72737 40.4903 7.62838 40.6072 7.50237C40.7172 7.37902 40.7614 7.29576 40.8939 7.29576C40.9818 7.29576 41.0258 7.35743 41.0258 7.48078C41.0258 7.60414 40.9157 8.12038 40.8491 8.76058C40.8049 9.1732 40.7608 10.1224 40.7608 10.2667C40.7608 10.4518 40.7608 10.659 40.5406 10.659C40.4087 10.659 40.3639 10.5147 40.3639 10.3703C40.3531 10.1523 40.3086 9.93692 40.2321 9.73076C40.1377 9.52111 39.9822 9.34054 39.7833 9.20966C39.5844 9.07878 39.3502 9.00288 39.1074 8.99063C38.5557 8.92896 36.2181 8.92896 35.843 8.92896C35.7329 8.92896 35.6887 8.97028 35.6887 9.11399L35.6874 10.7817Z" fill="#201B18"/>
<path d="M46.1683 8.66004C46.1683 6.01904 46.1683 5.53241 46.1314 4.97671C46.0945 4.38584 45.9086 4.09041 45.4999 4.00344C45.2811 3.95357 45.0565 3.93015 44.8314 3.93375C44.6455 3.93375 44.5341 3.89921 44.5341 3.75982C44.5341 3.65559 44.6825 3.62104 44.9798 3.62104C45.6851 3.62104 46.8552 3.67347 47.3938 3.67347C47.8553 3.67347 48.9535 3.62104 49.6595 3.62104C49.9008 3.62104 50.0491 3.6562 50.0491 3.75982C50.0491 3.89859 49.9377 3.93375 49.7518 3.93375C49.5648 3.93561 49.3784 3.95316 49.1948 3.98617C48.6931 4.07314 48.5448 4.36857 48.5079 4.97671C48.4703 5.5318 48.4703 6.01904 48.4703 8.66004V11.718C48.4703 13.403 48.4703 14.7759 48.5448 15.5228C48.6002 15.9922 48.7307 16.3049 49.2877 16.374C49.6017 16.4151 49.9181 16.4384 50.235 16.4437C50.4394 16.4437 50.5323 16.4955 50.5323 16.5824C50.5323 16.7058 50.384 16.7564 50.1796 16.7564C48.9542 16.7564 47.7841 16.7046 47.2831 16.7046C46.8559 16.7046 45.6858 16.7564 44.9435 16.7564C44.7022 16.7564 44.5724 16.7046 44.5724 16.5824C44.5724 16.4955 44.6468 16.4437 44.8697 16.4437C45.0945 16.4437 45.3187 16.4203 45.5381 16.374C45.9092 16.3043 46.0206 16.0088 46.0767 15.5056C46.1696 14.7759 46.1696 13.403 46.1696 11.718L46.1683 8.66004Z" fill="#201B18"/>
<path d="M55.6953 14.3941C55.7322 15.751 55.9742 16.2013 56.3453 16.3228C56.6577 16.4138 56.9841 16.4554 57.3111 16.4461C57.5154 16.4461 57.6269 16.4807 57.6269 16.5849C57.6269 16.7237 57.4594 16.7588 57.1997 16.7588C55.9926 16.7588 55.2497 16.707 54.897 16.707C54.7296 16.707 53.8568 16.7588 52.8917 16.7588C52.6504 16.7588 52.483 16.7416 52.483 16.5849C52.483 16.4807 52.5944 16.4461 52.7803 16.4461C53.0617 16.4507 53.3427 16.4215 53.6162 16.3592C54.0987 16.2204 54.1732 15.7165 54.1917 14.2048L54.3591 3.91894C54.3591 3.5717 54.4145 3.32808 54.6004 3.32808C54.8047 3.32808 54.9722 3.55381 55.2873 3.86651C55.5101 4.09225 58.3329 6.92445 61.0442 9.44334C62.3073 10.6251 64.8136 13.1267 65.1314 13.4048H65.2243L65.0384 5.60395C65.02 4.54434 64.8525 4.21376 64.4069 4.04045C64.0872 3.9554 63.7547 3.92019 63.4227 3.93621C63.1999 3.93621 63.1254 3.8844 63.1254 3.77955C63.1254 3.64078 63.3297 3.62289 63.6079 3.62289C64.5737 3.62289 65.465 3.67532 65.8552 3.67532C66.0596 3.67532 66.7649 3.62289 67.6753 3.62289C67.9166 3.62289 68.1025 3.64016 68.1025 3.77955C68.1025 3.88399 67.9911 3.93621 67.7683 3.93621C67.5809 3.9294 67.3934 3.94705 67.2112 3.98864C66.6911 4.12741 66.5428 4.49254 66.5243 5.46518L66.3199 16.4282C66.3199 16.8106 66.2455 16.9667 66.0787 16.9667C65.8743 16.9667 65.6515 16.7755 65.4472 16.5843C64.277 15.542 61.9005 13.2661 59.969 11.4762C57.9452 9.6 55.8819 7.42774 55.5523 7.09715H55.4969L55.6953 14.3941Z" fill="#201B18"/>
<path d="M72.3353 8.66004C72.3353 6.01904 72.3353 5.53241 72.2984 4.9767C72.2615 4.38584 72.1125 4.10767 71.5001 3.98617C71.2607 3.94709 71.0179 3.92953 70.775 3.93375C70.5706 3.93375 70.4592 3.89921 70.4592 3.77709C70.4592 3.65497 70.591 3.62043 70.8673 3.62043C71.8515 3.62043 73.0216 3.67285 73.5417 3.67285C74.1172 3.67285 75.2873 3.62043 76.4014 3.62043C78.7225 3.62043 81.8235 3.62043 83.8506 5.60087C85.049 6.79234 85.6962 8.37829 85.6515 10.0139C85.6788 11.8148 84.9525 13.5543 83.6277 14.861C82.7707 15.6776 80.8419 16.9112 77.4067 16.9112C76.7382 16.9112 75.9768 16.8594 75.2708 16.8069C74.5648 16.7545 73.9155 16.7027 73.4507 16.7027C73.2464 16.7027 72.8383 16.7027 72.392 16.72C71.9648 16.72 71.4823 16.7545 71.1105 16.7545C70.8692 16.7545 70.7393 16.7027 70.7393 16.5806C70.7393 16.4936 70.8138 16.4418 71.0366 16.4418C71.2615 16.4418 71.4858 16.4185 71.7051 16.3721C72.0763 16.3024 72.1666 15.9206 72.2437 15.4167C72.3367 14.6871 72.3367 13.3148 72.3367 11.7161L72.3353 8.66004ZM74.6564 10.572C74.6564 12.4137 74.6749 13.7515 74.6933 14.0821C74.6776 14.5301 74.7468 14.9771 74.8977 15.4026C75.139 15.7325 75.8634 16.0977 77.3302 16.0977C79.2241 16.0977 80.4872 15.7504 81.6013 14.8469C82.7879 13.8915 83.161 12.3101 83.161 10.5208C83.194 9.72185 83.0533 8.92492 82.7474 8.17833C82.4414 7.43175 81.9766 6.75107 81.3811 6.17755C79.9359 4.97199 78.0411 4.34776 76.1074 4.44011C75.7011 4.43478 75.2958 4.47621 74.9003 4.56347C74.8255 4.58763 74.7622 4.63567 74.7214 4.69917C74.6807 4.76267 74.6651 4.83756 74.6775 4.91071C74.6591 5.50157 74.6591 7.01328 74.6591 8.38559L74.6564 10.572Z" fill="#EA7613"/>
<path d="M87.7861 10.1896C87.7861 7.21866 89.8844 3.37865 95.4554 3.37865C100.079 3.37865 102.958 5.89815 102.958 9.87693C102.958 13.8557 99.9869 17.0006 95.2702 17.0006C89.9404 17 87.7861 13.2648 87.7861 10.1896ZM100.358 10.5196C100.358 6.62779 97.9624 4.21253 94.9168 4.21253C92.7809 4.21253 90.3484 5.32271 90.3484 9.65058C90.3484 13.2642 92.4843 16.131 96.0494 16.131C97.35 16.1316 100.358 15.5407 100.358 10.5196Z" fill="#EA7613"/>
<path d="M107.396 15.1065C106.68 14.4732 106.107 13.7116 105.711 12.867C105.315 12.0223 105.104 11.1118 105.092 10.1895C105.08 9.26731 105.266 8.35218 105.639 7.49853C106.012 6.64488 106.565 5.87013 107.265 5.22032C108.602 4.07375 110.363 3.37865 113.132 3.37865C114.033 3.3747 114.933 3.43284 115.825 3.55258C116.53 3.63955 117.125 3.79559 117.682 3.84801C117.886 3.86528 117.96 3.95225 117.96 4.05648C117.96 4.19525 117.904 4.40372 117.867 5.01186C117.83 5.58545 117.848 6.54083 117.811 6.88807C117.792 7.14896 117.755 7.28774 117.588 7.28774C117.44 7.28774 117.402 7.14896 117.402 6.90534C117.374 6.30808 117.117 5.74034 116.677 5.30667C116.064 4.69854 114.616 4.22918 112.907 4.22918C111.636 4.14431 110.381 4.53144 109.413 5.30667C108.058 6.47051 107.704 8.12099 107.704 9.80908C107.704 13.9414 111.066 15.994 113.554 15.994C115.207 15.994 116.21 15.8201 116.953 15.0208C117.252 14.6878 117.468 14.2959 117.584 13.8742C117.639 13.596 117.677 13.527 117.825 13.527C117.957 13.527 117.992 13.6503 117.992 13.7879C117.915 14.5663 117.778 15.3386 117.583 16.0989C117.564 16.2177 117.508 16.3288 117.423 16.4183C117.337 16.5078 117.225 16.5719 117.101 16.6028C116.016 16.8994 114.888 17.0343 113.758 17.0025C111.222 17 109.086 16.4788 107.396 15.1065Z" fill="#EA7613"/>
<path d="M0.345267 0H10.6594L10.697 3.22447L5.08636 3.2294L5.07845 6.61423L9.01925 6.62225L9.71012 6.23862V10.2359L9.21373 9.85227H5.09296V15.4649L5.99938 16.8378H0.00247574L0.801446 15.6462L0.949769 0.970793L0.345267 0Z" fill="#EA7613"/>
<path d="M13.9339 0.0197334H11.417V3.21892H13.864C16.7995 3.21892 19.0013 5.35972 19.0013 8.46145C19.0013 11.541 16.8977 13.6571 14.0354 13.6571H10.5336H5.6673L5.664 15.4013L6.6436 16.8581H13.7902C19.1958 16.8581 22.9401 13.3938 22.9401 8.43801C22.9368 3.45945 19.2426 0.0197334 13.9339 0.0197334Z" fill="black"/>
</svg>
